<svg xmlns="http://www.w3.org/2000/svg" version="1.1" xmlns:xlink="http://www.w3.org/1999/xlink" xmlns:svgjs="http://svgjs.com/svgjs" width="1440" height="560" preserveAspectRatio="none" viewBox="0 0 1440 560"><g mask="url(&quot;#SvgjsMask1000&quot;)" fill="none"><rect width="1440" height="560" x="0" y="0" fill="#1e3266"></rect><path d="M1488 560L0 560 L0 315.99Q22.88 266.88, 72 289.76Q114.61 260.37, 144 302.97Q240.94 279.92, 264 376.86Q294.04 286.9, 384 316.95Q451.08 264.03, 504 331.11Q559.87 314.98, 576 370.84Q577.76 300.6, 648 302.36Q678.4 260.76, 720 291.17Q801.68 252.86, 840 334.54Q870.29 292.83, 912 323.11Q936.28 275.39, 984 299.68Q1061.12 256.8, 1104 333.92Q1158.86 316.77, 1176 371.63Q1199.25 322.88, 1248 346.13Q1297 275.13, 1368 324.13Q1446.24 282.37, 1488 360.6z" fill="#182f5d"></path><path d="M1488 560L0 560 L0 437.39Q19.68 385.06, 72 404.74Q100.78 361.52, 144 390.3Q185.84 312.14, 264 353.99Q330.16 348.15, 336 414.31Q388.08 394.39, 408 446.47Q437.55 404.02, 480 433.58Q528.75 362.32, 600 411.07Q638.32 329.39, 720 367.71Q761.11 336.82, 792 377.93Q815.14 329.07, 864 352.21Q946.91 315.13, 984 398.04Q1037.89 331.94, 1104 385.83Q1168.72 378.55, 1176 443.27Q1223.9 371.17, 1296 419.07Q1306.87 357.94, 1368 368.81Q1441.19 322, 1488 395.2z" fill="#25467d"></path><path d="M1560 560L0 560 L0 516.67Q54.59 451.26, 120 505.85Q117.52 431.37, 192 428.89Q260.36 377.25, 312 445.6Q389.73 403.33, 432 481.06Q440.16 417.22, 504 425.38Q571.06 372.44, 624 439.5Q703.27 398.77, 744 478.04Q816.49 430.53, 864 503.03Q883.24 402.27, 984 421.51Q1051.7 369.22, 1104 436.92Q1165.83 426.75, 1176 488.57Q1249.08 441.65, 1296 514.73Q1313.72 460.45, 1368 478.16Q1383.81 421.97, 1440 437.78Q1511.24 389.01, 1560 460.25z" fill="#356cb1"></path><path d="M1464 560L0 560 L0 500.07Q74.7 502.77, 72 577.47Q97.59 483.06, 192 508.65Q243.81 440.45, 312 492.26Q418.52 478.78, 432 585.31Q451.87 533.17, 504 553.04Q513.18 490.22, 576 499.4Q619.93 471.33, 648 515.26Q730.88 478.13, 768 561.01Q774.18 495.19, 840 501.37Q894.63 436, 960 490.62Q1048.73 459.35, 1080 548.08Q1149.9 497.98, 1200 567.88Q1210.35 506.23, 1272 516.58Q1344.36 468.94, 1392 541.31Q1438.78 516.09, 1464 562.87z" fill="white"></path></g><defs><mask id="SvgjsMask1000"><rect width="1440" height="560" fill="#ffffff"></rect></mask></defs></svg>