<svg xmlns="http://www.w3.org/2000/svg" version="1.1" xmlns:xlink="http://www.w3.org/1999/xlink" xmlns:svgjs="http://svgjs.com/svgjs" width="1440" height="560" preserveAspectRatio="none" viewBox="0 0 1440 560"><g mask="url(&quot;#SvgjsMask1004&quot;)" fill="none"><rect width="1440" height="560" x="0" y="0" fill="#0e2a47"></rect><g transform="translate(0, 0)" stroke-linecap="round"><path d="M270 218.19 L270 341.81" stroke-width="37.5" stroke="#3a7cc3"></path><path d="M320 128.32999999999998 L320 431.67" stroke-width="37.5" stroke="#dd1133"></path><path d="M370 262.93 L370 297.07" stroke-width="37.5" stroke="#3a7cc3"></path><path d="M420 177.58 L420 252.58" stroke-width="37.5" stroke="#dd1133"></path><path d="M420 308.83000000000004 L420 382.42" stroke-width="37.5" stroke="#dd1133"></path><path d="M470 132.34 L470 207.34" stroke-width="37.5" stroke="#3a7cc3"></path><path d="M470 263.59000000000003 L470 301.09000000000003" stroke-width="37.5" stroke="#dd1133"></path><path d="M470 357.34000000000003 L470 427.65" stroke-width="37.5" stroke="#3a7cc3"></path><path d="M520 214.08 L520 345.92" stroke-width="37.5" stroke="#dd1133"></path><path d="M570 212.5 L570 347.5" stroke-width="37.5" stroke="#3a7cc3"></path><path d="M620 209.82 L620 350.18" stroke-width="37.5" stroke="#dd1133"></path><path d="M670 277.9 L670 282.1" stroke-width="37.5" stroke="#dd1133"></path><path d="M720 279.63 L720 280.37" stroke-width="37.5" stroke="#3a7cc3"></path><path d="M770 237.51 L770 322.49" stroke-width="37.5" stroke="#dd1133"></path><path d="M820 277.49 L820 282.51" stroke-width="37.5" stroke="#3a7cc3"></path><path d="M870 186.61 L870 373.39" stroke-width="37.5" stroke="#3a7cc3"></path><path d="M920 129.37 L920 279.37" stroke-width="37.5" stroke="#3a7cc3"></path><path d="M920 335.62 L920 430.63" stroke-width="37.5" stroke="#dd1133"></path><path d="M970 200.6 L970 238.1" stroke-width="37.5" stroke="#dd1133"></path><path d="M970 294.35 L970 359.4" stroke-width="37.5" stroke="#3a7cc3"></path><path d="M1020 235.53 L1020 324.47" stroke-width="37.5" stroke="#dd1133"></path><path d="M1070 249.52 L1070 310.48" stroke-width="37.5" stroke="#3a7cc3"></path><path d="M1120 241.28 L1120 318.73" stroke-width="37.5" stroke="#3a7cc3"></path><path d="M1170 158.31 L1170 195.81" stroke-width="37.5" stroke="#3a7cc3"></path><path d="M1170 252.06 L1170 289.56" stroke-width="37.5" stroke="#dd1133"></path><path d="M1170 345.81 L1170 401.69" stroke-width="37.5" stroke="#dd1133"></path></g></g><defs><mask id="SvgjsMask1004"><rect width="1440" height="560" fill="#ffffff"></rect></mask></defs></svg>